<svg width="11" height="15" viewBox="0 0 11 15" fill="none" xmlns="http://www.w3.org/2000/svg">
<path d="M5.48959 0C2.45827 0 -0.0078125 2.46609 -0.0078125 5.4974C-0.0078125 6.88992 0.869606 8.85738 2.60018 11.3452C3.8651 13.1638 5.10918 14.5711 5.1616 14.6301L5.48959 15L5.81769 14.6301C5.86999 14.5711 7.11407 13.1638 8.3791 11.3452C10.1096 8.85738 10.9871 6.88992 10.9871 5.4974C10.9871 2.46609 8.5209 0 5.48959 0ZM7.66396 10.8373C6.80898 12.0673 5.94483 13.1259 5.48959 13.666C5.03548 13.1274 4.17455 12.0728 3.32013 10.8444C1.7167 8.53935 0.869148 6.69033 0.869148 5.4974C0.869148 2.94971 2.9419 0.876961 5.48959 0.876961C8.03738 0.876961 10.11 2.94971 10.11 5.4974C10.11 6.68907 9.26419 8.53558 7.66396 10.8373Z" fill="#999999"/>
</svg>
